<svg width="19" height="19" viewBox="0 0 19 19" fill="none" xmlns="http://www.w3.org/2000/svg">
<path d="M16.6251 3.95833C15.7463 3.68125 14.7805 3.5625 13.8542 3.5625C12.3105 3.5625 10.648 3.87917 9.50008 4.75C8.35216 3.87917 6.68966 3.5625 5.14591 3.5625C3.60216 3.5625 1.93966 3.87917 0.791748 4.75V16.3479C0.791748 16.5458 0.989665 16.7437 1.18758 16.7437C1.26675 16.7437 1.30633 16.7042 1.3855 16.7042C2.45425 16.1896 3.998 15.8333 5.14591 15.8333C6.68966 15.8333 8.35216 16.15 9.50008 17.0208C10.5688 16.3479 12.5084 15.8333 13.8542 15.8333C15.1605 15.8333 16.5063 16.0708 17.6147 16.6646C17.6938 16.7042 17.7334 16.7042 17.8126 16.7042C18.0105 16.7042 18.2084 16.5062 18.2084 16.3083V4.75C17.7334 4.39375 17.2188 4.15625 16.6251 3.95833ZM16.6251 14.6458C15.7542 14.3687 14.8042 14.25 13.8542 14.25C12.5084 14.25 10.5688 14.7646 9.50008 15.4375V6.33333C10.5688 5.66042 12.5084 5.14583 13.8542 5.14583C14.8042 5.14583 15.7542 5.26458 16.6251 5.54167V14.6458Z" fill="#A3A3A3"/>
<path d="M13.8542 8.3125C14.5509 8.3125 15.2238 8.38375 15.8334 8.51833V7.315C15.208 7.19625 14.5351 7.125 13.8542 7.125C12.5084 7.125 11.2892 7.35458 10.2917 7.78208V9.09625C11.1863 8.58958 12.4292 8.3125 13.8542 8.3125Z" fill="#A3A3A3"/>
<path d="M10.2917 9.88792V11.2021C11.1863 10.6954 12.4292 10.4183 13.8542 10.4183C14.5509 10.4183 15.2238 10.4896 15.8334 10.6242V9.42083C15.208 9.30208 14.5351 9.23083 13.8542 9.23083C12.5084 9.23083 11.2892 9.46834 10.2917 9.88792Z" fill="#A3A3A3"/>
<path d="M13.8542 11.3446C12.5084 11.3446 11.2892 11.5742 10.2917 12.0017V13.3159C11.1863 12.8092 12.4292 12.5321 13.8542 12.5321C14.5509 12.5321 15.2238 12.6034 15.8334 12.7379V11.5346C15.208 11.4079 14.5351 11.3446 13.8542 11.3446Z" fill="#A3A3A3"/>
</svg>
