<svg width="19" height="19" viewBox="0 0 19 19" fill="none" xmlns="http://www.w3.org/2000/svg">
<path d="M10.1888 11.9305L8.178 9.94338L8.20175 9.91962C9.57925 8.38379 10.5609 6.61837 11.1388 4.75004H13.4584V3.16671H7.91675V1.58337H6.33341V3.16671H0.791748V4.74212H9.63466C9.10425 6.27004 8.26508 7.71879 7.12508 8.98546C6.38883 8.17004 5.77925 7.27546 5.29633 6.33337H3.713C4.29091 7.62379 5.08258 8.84296 6.07216 9.94338L2.04258 13.9175L3.16675 15.0417L7.12508 11.0834L9.58716 13.5455L10.1888 11.9305ZM14.6459 7.91671H13.0626L9.50008 17.4167H11.0834L11.9701 15.0417H15.7305L16.6251 17.4167H18.2084L14.6459 7.91671ZM12.5717 13.4584L13.8542 10.0305L15.1367 13.4584H12.5717V13.4584Z" fill="#A3A3A3"/>
</svg>
