<svg width="138" height="37" viewBox="0 0 138 37" fill="none" xmlns="http://www.w3.org/2000/svg">
<path d="M0.664062 34.1484L5.67969 34.1719L5.70312 1.94531H1.76562V0.140625H16.1797V1.94531H12.0078V34.1719H19.1797C23.2891 34.1719 25.7812 32.2734 26.6562 28.4766C26.9062 27.3828 27.0703 26.2578 27.1484 25.1016H28.9766V36H0.664062V34.1484Z" fill="#292929"/>
<path d="M51.875 33.7031C49.7969 35.5469 47.5469 36.4688 45.125 36.4688C42.7188 36.4688 40.6797 35.9844 39.0078 35.0156C36.6953 33.6562 35.5391 31.3828 35.5391 28.1953V13.8516H32.2109V12.0234H41.6328V29.2734C41.6328 32.5703 43.1562 34.2188 46.2031 34.2188C48.3125 34.2188 50.2031 33.25 51.875 31.3125V13.8516H47.8203V12.0234H57.9219V34.1719H60.9453V36H51.875V33.7031Z" fill="#292929"/>
<path d="M86.4688 32.625C84.4688 35.1875 81.3906 36.4688 77.2344 36.4688C75.7656 36.4688 74.2266 36.1875 72.6172 35.625C71.0078 35.0625 69.6094 34.2422 68.4219 33.1641C65.9062 30.8516 64.6484 27.7891 64.6484 23.9766C64.6484 20.1484 65.875 17.1328 68.3281 14.9297C70.7969 12.7266 73.9219 11.625 77.7031 11.625C79.8594 11.625 81.8516 12.1094 83.6797 13.0781C85.5234 14.0312 86.4453 15.3828 86.4453 17.1328C86.4453 18.0703 86.1484 18.8359 85.5547 19.4297C84.9609 20.0234 84.3281 20.3203 83.6562 20.3203C82.5469 20.3203 81.6875 20.0625 81.0781 19.5469C80.4688 19.0312 80.1641 18.3359 80.1641 17.4609C80.1641 16.0391 80.7344 15.0547 81.875 14.5078C80.7188 13.7891 79.3828 13.4297 77.8672 13.4297C73.3672 13.4297 71.1172 16.9375 71.1172 23.9531C71.1172 28.8906 72.4766 32.0781 75.1953 33.5156C76.1016 33.9844 77.1562 34.2188 78.3594 34.2188C81.2031 34.2188 83.5 33.3125 85.25 31.5L86.4688 32.625Z" fill="#292929"/>
<path d="M105.055 33.3516C103.242 35.4297 100.812 36.4688 97.7656 36.4688C95.4531 36.4688 93.4609 35.8281 91.7891 34.5469C90.1172 33.25 89.2812 31.5625 89.2812 29.4844C89.2812 27.3906 90.1016 25.75 91.7422 24.5625C93.3828 23.3594 95.4922 22.7578 98.0703 22.7578C100.664 22.7578 102.828 23.4062 104.562 24.7031V19.125C104.562 17.2344 104.328 15.9531 103.859 15.2812C103.391 14.6094 102.836 14.1406 102.195 13.875C101.57 13.6094 100.875 13.4766 100.109 13.4766C98.9062 13.4766 97.8906 13.6172 97.0625 13.8984C96.2344 14.1641 95.6797 14.4375 95.3984 14.7188C96.1172 14.9375 96.6719 15.4844 97.0625 16.3594C97.1875 16.6719 97.25 17.0469 97.25 17.4844C97.25 18.3438 96.9375 19.0625 96.3125 19.6406C95.6875 20.2031 95.0625 20.4844 94.4375 20.4844C93.3438 20.4844 92.4922 20.1953 91.8828 19.6172C91.2734 19.0391 90.9688 18.3438 90.9688 17.5312C90.9688 16.7188 91.1172 16.0547 91.4141 15.5391C91.7109 15.0078 92.1094 14.5312 92.6094 14.1094C93.5625 13.3125 94.7578 12.7031 96.1953 12.2812C97.6484 11.8594 99.0078 11.6484 100.273 11.6484C103.789 11.6484 106.391 12.3594 108.078 13.7812C109.766 15.2031 110.609 17.1875 110.609 19.7344V32.2266C110.609 33.5234 110.93 34.1719 111.57 34.1719C112.211 34.1719 112.828 33.7812 113.422 33L114.641 34.0078C113.578 35.6172 111.844 36.4219 109.438 36.4219C108.594 36.4219 107.734 36.1562 106.859 35.625C106 35.0938 105.398 34.3359 105.055 33.3516ZM104.633 26.7891C103.305 25.4922 101.852 24.8438 100.273 24.8438C98.6953 24.8438 97.5078 25.2188 96.7109 25.9688C95.9141 26.7031 95.5156 27.8906 95.5156 29.5312C95.5156 31.9531 96.3672 33.4219 98.0703 33.9375C98.5547 34.0938 99.0469 34.1719 99.5469 34.1719C100.969 34.1719 102.328 33.625 103.625 32.5312C104 32.2031 104.336 31.8516 104.633 31.4766V26.7891Z" fill="#292929"/>
<path d="M121.414 34.2891C120.914 34.6328 120.633 35.2031 120.57 36H118.32L118.414 28.9453H120.57C120.57 30.1484 121.32 31.3828 122.82 32.6484C124.336 33.9141 126.25 34.5469 128.562 34.5469C130.875 34.5469 132.344 33.875 132.969 32.5312C133.141 32.1406 133.227 31.7344 133.227 31.3125C133.227 30.5312 132.688 29.8125 131.609 29.1562C130.547 28.5 128.789 27.7344 126.336 26.8594C123.898 25.9844 121.977 24.8594 120.57 23.4844C119.164 22.0938 118.461 20.4062 118.461 18.4219C118.461 16.4219 119.352 14.7891 121.133 13.5234C122.914 12.2578 124.969 11.625 127.297 11.625C129.641 11.625 131.523 12.2031 132.945 13.3594C133.383 13.2188 133.727 12.875 133.977 12.3281C134.07 12.1406 134.117 11.9141 134.117 11.6484H135.898V18.1875H133.836C133.57 16.7188 132.859 15.5781 131.703 14.7656C130.562 13.9375 129.219 13.5234 127.672 13.5234C126.125 13.5234 124.93 13.8281 124.086 14.4375C123.258 15.0312 122.844 15.7578 122.844 16.6172C122.844 17.4766 123.32 18.2656 124.273 18.9844C125.242 19.6875 126.602 20.3516 128.352 20.9766C130.117 21.5859 131.5 22.125 132.5 22.5938C135.703 24.1406 137.305 26.3828 137.305 29.3203C137.305 32.2422 135.664 34.3672 132.383 35.6953C131.102 36.2109 129.797 36.4688 128.469 36.4688C125.703 36.4688 123.352 35.7422 121.414 34.2891Z" fill="#292929"/>
</svg>
